<?xml version="1.0" encoding="UTF-8" standalone="no"?>
<svg
   t="1698123906062"
   class="icon"
   viewBox="0 0 1024 1024"
   version="1.1"
   p-id="8913"
   width="128"
   height="128"
   id="svg12"
   sodipodi:docname="中英文切换-英.svg"
   inkscape:version="1.2.2 (b0a8486541, 2022-12-01)"
   inkscape:export-filename="中英文切换-英.png"
   inkscape:export-xdpi="96"
   inkscape:export-ydpi="96"
   xmlns:inkscape="http://www.inkscape.org/namespaces/inkscape"
   xmlns:sodipodi="http://sodipodi.sourceforge.net/DTD/sodipodi-0.dtd"
   xmlns="http://www.w3.org/2000/svg"
   xmlns:svg="http://www.w3.org/2000/svg">
  <defs
     id="defs16" />
  <sodipodi:namedview
     id="namedview14"
     pagecolor="#ffffff"
     bordercolor="#000000"
     borderopacity="0.25"
     inkscape:showpageshadow="2"
     inkscape:pageopacity="0.0"
     inkscape:pagecheckerboard="0"
     inkscape:deskcolor="#d1d1d1"
     showgrid="false"
     inkscape:zoom="5.7890625"
     inkscape:cx="38.002699"
     inkscape:cy="64"
     inkscape:window-width="1920"
     inkscape:window-height="996"
     inkscape:window-x="0"
     inkscape:window-y="0"
     inkscape:window-maximized="1"
     inkscape:current-layer="svg12" />
  <path
     d="M612.878 566.153c0 22.386-18.148 40.534-40.533 40.534H40.532C18.148 606.687 0 588.538 0 566.153V49.535C0 27.15 18.148 9 40.532 9h531.813c22.385 0 40.533 18.149 40.533 40.535v516.618z"
     fill="#CCCCCC"
     p-id="8914"
     id="path2" />
  <path
     d="M1024 974.467c0 22.385-18.149 40.533-40.533 40.533H451.659c-22.383 0-40.532-18.148-40.532-40.533V457.849c0-22.385 18.148-40.534 40.532-40.534h531.808c22.384 0 40.533 18.149 40.533 40.534v516.618z"
     fill="#327AEA"
     p-id="8915"
     id="path4"
     style="fill:#0788ff;fill-opacity:1" />
  <path
     d="M915.763 393.559V184.043c0-41.91-34.092-76.002-75.999-76.002H634.568v50.668h205.195c13.974 0 25.333 11.365 25.333 25.334v209.516H804.06l86.368 110.342 86.369-110.342h-61.034zM110.183 632.774v209.521c0 41.909 34.09 76.002 75.998 76.002h205.195v-50.67H186.18c-13.968 0-25.333-11.358-25.333-25.332V632.774h61.036L135.51 522.432 49.142 632.774h61.041z"
     fill="#F7931E"
     p-id="8916"
     id="path6"
     style="fill:#fcae32;fill-opacity:1" />
  <path
     d="M275.201 95.626h61.669v71.816h151.333v227.621h-60.046v-27.996H336.87v130.648h-61.669V367.068h-91.287v29.213h-60.046V167.443h151.333V95.626z m-91.287 215.448h91.287v-87.64h-91.287v87.64z m244.243-87.639H336.87v87.64h91.287v-87.64z"
     fill="#4D4D4D"
     p-id="8917"
     id="path8" />
  <path
     d="M903.848 898.218h-89.061l-28.696-87.83H646.81l-28.202 87.83h-88.566l140.27-383.228h95.987l137.549 383.228zM766.794 747.302l-43.541-132.856c-2.811-8.412-4.789-19.545-5.938-33.398h-2.227c-0.989 11.213-3.215 22.019-6.68 32.409l-43.787 133.846h102.173z"
     fill="#FFFFFF"
     p-id="8918"
     id="path10" />
</svg>
