<?xml version="1.0" standalone="no"?><!DOCTYPE svg PUBLIC "-//W3C//DTD SVG 1.1//EN" "http://www.w3.org/Graphics/SVG/1.1/DTD/svg11.dtd"><svg t="1695136713693" class="icon" viewBox="0 0 1054 1024" version="1.1" xmlns="http://www.w3.org/2000/svg" p-id="4992" width="527" height="512" xmlns:xlink="http://www.w3.org/1999/xlink"><path d="M921.299231 210.352398v498.465397l-503.534537-1.689713v-609.141613l402.996601 0.844857 100.537936 111.521072z" fill="#C7CCD1" p-id="4993"></path><path d="M921.299231 210.352398h-102.227649v-112.365929l102.227649 112.365929zM557.951751 308.634567h205.300155v21.121415h-205.300155zM557.951751 440.432197h276.26811v21.121415h-276.26811zM557.951751 572.229827h276.26811v21.121416h-276.26811z" fill="#A8ACB7" p-id="4994"></path><path d="M668.154846 440.4153v519.586812l-524.655952-1.689713v-635.332167l419.893733 0.844856 104.762219 116.590212z" fill="#E7EAF1" p-id="4995"></path><path d="M668.154846 440.4153h-106.451932v-117.435068l106.451932 117.435068z" fill="#D2D5D8" p-id="4996"></path><path d="M317.835055 681.799281h44.7774c5.06914 0 8.448566 0.844857 10.138279 2.534569 1.689713 1.689713 3.379426 4.224283 3.379427 8.448566s-0.844857 6.758853-3.379427 8.448566c-1.689713 1.689713-5.06914 2.53457-10.138279 2.53457h-57.450249c-3.379426 0-6.758853-0.844857-8.448566-2.53457-1.689713-1.689713-3.379426-4.224283-3.379427-8.448566v-109.831358c0-4.224283 0.844857-6.758853 3.379427-7.60371 1.689713-1.689713 5.06914-2.53457 9.293422-2.53457h57.45025c3.379426 0 5.913996 0.844857 8.448566 2.53457 1.689713 1.689713 2.53457 4.224283 2.53457 8.448566s-0.844857 6.758853-2.53457 8.448566c-1.689713 1.689713-5.06914 2.53457-8.448566 2.53457h-44.7774v31.259695h43.087686c4.224283 0 6.758853 0.844857 8.448566 2.534569 1.689713 1.689713 2.53457 4.224283 2.53457 8.448566 0 3.379426-0.844857 6.758853-2.53457 7.60371-1.689713 1.689713-4.224283 2.53457-8.448566 2.53457h-43.087686v34.639121zM418.372991 694.47213c0 2.53457-0.844857 5.06914-2.53457 6.758852-1.689713 1.689713-5.06914 3.379426-9.293422 3.379427-4.224283 0-7.603709-0.844857-9.293423-3.379427-1.689713-1.689713-2.53457-4.224283-2.53457-6.758852v-114.055642c0-2.53457 0.844857-4.224283 1.689713-5.913996 0.844857-1.689713 4.224283-2.53457 8.448566-2.53457 2.53457 0 4.224283 0.844857 5.913997 2.53457 1.689713 1.689713 2.53457 3.379426 4.224283 4.224283l59.139962 78.571664v-76.037094c0-2.53457 0.844857-4.224283 2.53457-6.758853 1.689713-1.689713 5.06914-3.379426 9.293422-3.379427 4.224283 0 7.603709 0.844857 9.293423 3.379427 1.689713 1.689713 2.53457 4.224283 2.53457 6.758853v114.900498c0 1.689713-0.844857 4.224283-1.689713 5.913996-0.844857 1.689713-4.224283 2.53457-8.448566 2.53457-2.53457 0-4.224283-0.844857-5.913997-2.53457l-4.224283-4.224283-58.295105-76.037094v72.657668z" fill="#0788FF" p-id="4997"></path><path d="M291.6445 71.812811l-108.141645-71.812811v55.760536h-59.984819c-68.433385 0-123.349064 54.915679-123.349065 123.349064v78.571665c0 12.672849 10.138279 22.811128 22.811129 22.811128 12.672849 0 22.811128-10.138279 22.811128-22.811128v-78.571665c0-43.087687 34.639121-78.571664 78.571664-78.571664h59.984819v42.24283l107.296789-70.967955z" fill="#FCAE32" p-id="4998"></path><path d="M762.229629 952.153394l108.141646 71.812812v-55.760536h59.984819c68.433385 0 123.349064-54.915679 123.349064-123.349065v-78.571664c0-12.672849-10.138279-22.811128-22.811128-22.811128-12.672849 0-22.811128 10.138279-22.811128 22.811128v78.571664c0 43.087687-34.639121 78.571664-78.571665 78.571665h-59.984819v-42.242831l-107.296789 70.967955z" fill="#0788FF" p-id="4999"></path></svg>